<?xml version="1.0" encoding="UTF-8" standalone="no"?>
<!-- Uploaded to: SVG Repo, www.svgrepo.com, Generator: SVG Repo Mixer Tools -->

<svg
   height="800px"
   width="800px"
   version="1.1"
   id="Layer_1"
   viewBox="0 0 512 512"
   xml:space="preserve"
   sodipodi:docname="tag-price-svgrepo-com.svg"
   inkscape:version="1.2.2 (b0a8486, 2022-12-01)"
   xmlns:inkscape="http://www.inkscape.org/namespaces/inkscape"
   xmlns:sodipodi="http://sodipodi.sourceforge.net/DTD/sodipodi-0.dtd"
   xmlns="http://www.w3.org/2000/svg"
   xmlns:svg="http://www.w3.org/2000/svg"><defs
   id="defs17"><rect
     x="88.135593"
     y="111.86441"
     width="532.20339"
     height="213.55932"
     id="rect2104" /></defs><sodipodi:namedview
   id="namedview15"
   pagecolor="#ffffff"
   bordercolor="#000000"
   borderopacity="0.25"
   inkscape:showpageshadow="2"
   inkscape:pageopacity="0.0"
   inkscape:pagecheckerboard="0"
   inkscape:deskcolor="#d1d1d1"
   showgrid="false"
   inkscape:zoom="0.295"
   inkscape:cx="323.72881"
   inkscape:cy="510.16949"
   inkscape:window-width="1866"
   inkscape:window-height="1027"
   inkscape:window-x="54"
   inkscape:window-y="25"
   inkscape:window-maximized="1"
   inkscape:current-layer="Layer_1" />
<path
   style="fill:#FF507D;"
   d="M415.272,52.462H293.808c-14.079,0-27.582,5.593-37.538,15.549L13.479,310.803  c-6.911,6.91-6.911,18.115,0,25.025l162.667,162.667c6.911,6.911,18.115,6.911,25.025,0l242.791-242.792  c9.956-9.955,15.549-23.458,15.549-37.538V96.701C459.512,72.269,439.705,52.462,415.272,52.462z M407.497,142.014  c-10.366,10.366-27.173,10.366-37.538,0c-10.366-10.366-10.366-27.172,0-37.538s27.173-10.366,37.538,0  C417.863,114.842,417.864,131.648,407.497,142.014z"
   id="path2" />
<path
   style="fill:#D23C69;"
   d="M40.036,337.36L282.827,94.568c9.956-9.955,23.459-15.549,37.538-15.549h121.463  c5.262,0,10.238,1.077,14.92,2.763c-6.142-17.054-22.306-29.32-41.477-29.32H293.808c-14.079,0-27.582,5.593-37.538,15.549  L13.479,310.803c-6.911,6.91-6.911,18.115,0,25.025l26.557,26.557C33.124,355.475,33.124,344.27,40.036,337.36z"
   id="path4" />
<path
   d="M512,34.874c0.039-9.349-3.569-18.126-10.158-24.716C495.253,3.569,486.526-0.041,477.127,0  c-9.322,0.039-18.098,3.703-24.71,10.314c-2.798,2.798-7.892,8.848-10.679,12.205c-2.926,3.525-2.442,8.754,1.083,11.68  c3.524,2.926,8.754,2.442,11.68-1.083c4.366-5.258,7.972-9.396,9.646-11.071c3.498-3.498,8.132-5.436,13.05-5.456  c0.027,0,0.052,0,0.079,0c4.862,0,9.419,1.88,12.837,5.3c3.437,3.437,5.32,8.024,5.299,12.916c-0.021,4.917-1.959,9.551-5.457,13.05  c-3.13,3.131-13.892,11.668-29.312,22.439c-9.121-15.594-26.037-26.099-45.37-26.099H293.808c-16.395,0-31.81,6.385-43.405,17.978  L7.613,304.965C2.704,309.874,0,316.401,0,323.343s2.704,13.47,7.613,18.378l162.667,162.667c4.908,4.908,11.436,7.613,18.378,7.613  c6.942,0,13.469-2.704,18.378-7.613l242.792-242.791c11.593-11.594,17.978-27.008,17.978-43.405V96.729  c0-3.585-0.363-7.085-1.051-10.469c17.551-12.077,30.436-22.181,34.929-26.674C508.297,52.972,511.961,44.197,512,34.874z   M451.217,96.729v121.463c0,11.965-4.66,23.213-13.119,31.673L195.306,492.658c-3.665,3.665-9.629,3.666-13.295,0L19.344,329.991  c-3.665-3.665-3.665-9.63,0-13.295L262.135,73.904c8.461-8.46,19.709-13.119,31.673-13.119h121.463  c13.64,0,25.53,7.638,31.618,18.86c-9.798,6.488-20.768,13.387-32.408,20.171c-0.363-0.398-0.734-0.793-1.119-1.178  c-13.584-13.584-35.686-13.584-49.27,0s-13.584,35.686,0,49.27c6.792,6.792,15.714,10.187,24.635,10.187  c8.921,0,17.843-3.395,24.635-10.187c9.067-9.067,12.073-21.926,9.036-33.517c10.123-5.892,19.844-11.916,28.815-17.742  C451.215,96.675,451.217,96.701,451.217,96.729z M381.319,127c1.457,2.897,4.381,4.569,7.417,4.569c1.253,0,2.526-0.285,3.722-0.887  c4.862-2.446,9.707-4.99,14.504-7.596c0.048,4.735-1.723,9.485-5.328,13.09c-7.116,7.116-18.692,7.116-25.808,0  c-7.115-7.116-7.115-18.692,0-25.808c3.558-3.558,8.231-5.336,12.904-5.336c3.7,0,7.389,1.134,10.536,3.363  c-4.695,2.552-9.46,5.051-14.263,7.468C380.908,117.921,379.259,122.908,381.319,127z"
   id="path6" />



<text
   xml:space="preserve"
   transform="scale(0.64)"
   id="text2102"
   style="font-size:192px;white-space:pre;shape-inside:url(#rect2104);display:inline;fill:#ff6600" /><text
   xml:space="preserve"
   style="font-size:170.667px;fill:#241c1c;stroke-width:0.640664"
   x="-165.19881"
   y="428.38284"
   id="text2112"
   transform="matrix(0.71149781,-0.70416059,0.7027051,0.71002715,0,0)"
   inkscape:transform-center-x="-96.07081"
   inkscape:transform-center-y="18.869632"><tspan
     sodipodi:role="line"
     id="tspan2110"
     style="font-style:normal;font-variant:normal;font-weight:normal;font-stretch:normal;font-size:170.667px;font-family:Verdana;-inkscape-font-specification:Verdana;fill:#241c1c;stroke-width:0.640664"
     x="-165.19881"
     y="428.38284"
     transform="matrix(1.3061865,0,0,1.3295669,-80.808539,-19.676596)">rd1</tspan></text></svg>
